<mxfile host="app.diagrams.net" agent="Mozilla/5.0 (Windows NT 10.0; Win64; x64) AppleWebKit/537.36 (KHTML, like Gecko) Chrome/139.0.0.0 Safari/537.36" version="28.2.0">
  <diagram name="Integration Scheme - Well Spaced" id="integration-scheme-v3">
    <mxGraphModel dx="2278" dy="1020" grid="1" gridSize="10" guides="1" tooltips="1" connect="1" arrows="1" fold="1" page="1" pageScale="1" pageWidth="1600" pageHeight="1100" math="0" shadow="0">
      <root>
        <mxCell id="0" />
        <mxCell id="1" parent="0" />
        <mxCell id="title" value="Схема интеграции - Процесс открытия депозита" style="text;html=1;strokeColor=none;fillColor=none;align=center;verticalAlign=middle;whiteSpace=wrap;rounded=0;fontStyle=1;fontSize=20;" parent="1" vertex="1">
          <mxGeometry x="500" y="20" width="600" height="40" as="geometry" />
        </mxCell>
        <mxCell id="client-zone" value="" style="rounded=1;whiteSpace=wrap;html=1;fillColor=#dae8fc;strokeColor=#6c8ebf;opacity=20;" parent="1" vertex="1">
          <mxGeometry x="40" y="100" width="200" height="140" as="geometry" />
        </mxCell>
        <mxCell id="client-title" value="КЛИЕНТ" style="text;html=1;strokeColor=none;fillColor=none;align=center;verticalAlign=middle;whiteSpace=wrap;rounded=0;fontStyle=1;fontSize=16;" parent="1" vertex="1">
          <mxGeometry x="100" y="110" width="80" height="25" as="geometry" />
        </mxCell>
        <mxCell id="client" value="Клиент банка" style="rounded=1;whiteSpace=wrap;html=1;fillColor=#dae8fc;strokeColor=#6c8ebf;fontStyle=1;fontSize=14;" parent="1" vertex="1">
          <mxGeometry x="60" y="150" width="160" height="70" as="geometry" />
        </mxCell>
        <mxCell id="frontoffice-zone" value="" style="rounded=1;whiteSpace=wrap;html=1;fillColor=#f8cecc;strokeColor=#b85450;opacity=20;" parent="1" vertex="1">
          <mxGeometry x="40" y="280" width="200" height="220" as="geometry" />
        </mxCell>
        <mxCell id="frontoffice-title" value="ФРОНТ-ОФИС" style="text;html=1;strokeColor=none;fillColor=none;align=center;verticalAlign=middle;whiteSpace=wrap;rounded=0;fontStyle=1;fontSize=16;" parent="1" vertex="1">
          <mxGeometry x="80" y="290" width="120" height="25" as="geometry" />
        </mxCell>
        <mxCell id="branch-employee" value="Сотрудник отделения" style="rounded=1;whiteSpace=wrap;html=1;fillColor=#f8cecc;strokeColor=#b85450;fontStyle=1;fontSize=13;" parent="1" vertex="1">
          <mxGeometry x="60" y="330" width="160" height="60" as="geometry" />
        </mxCell>
        <mxCell id="callcenter-employee" value="Оператор кол-центра" style="rounded=1;whiteSpace=wrap;html=1;fillColor=#f8cecc;strokeColor=#b85450;fontStyle=1;fontSize=13;" parent="1" vertex="1">
          <mxGeometry x="60" y="410" width="160" height="60" as="geometry" />
        </mxCell>
        <mxCell id="backoffice-zone" value="" style="rounded=1;whiteSpace=wrap;html=1;fillColor=#ffe6cc;strokeColor=#d79b00;opacity=20;" parent="1" vertex="1">
          <mxGeometry x="40" y="540" width="550" height="140" as="geometry" />
        </mxCell>
        <mxCell id="backoffice-title" value="БЭК-ОФИС&amp;nbsp;" style="text;html=1;strokeColor=none;fillColor=none;align=center;verticalAlign=middle;whiteSpace=wrap;rounded=0;fontStyle=1;fontSize=16;fontColor=#d79b00;" parent="1" vertex="1">
          <mxGeometry x="180" y="550" width="280" height="25" as="geometry" />
        </mxCell>
        <mxCell id="deposits-employee" value="Сотрудник депозитов" style="rounded=1;whiteSpace=wrap;html=1;fillColor=#ffe6cc;strokeColor=#d79b00;fontStyle=1;fontSize=13;" parent="1" vertex="1">
          <mxGeometry x="70" y="590" width="160" height="60" as="geometry" />
        </mxCell>
        <mxCell id="credits-employee" value="Сотрудник кредитования" style="rounded=1;whiteSpace=wrap;html=1;fillColor=#ffe6cc;strokeColor=#d79b00;fontStyle=1;fontSize=13;" parent="1" vertex="1">
          <mxGeometry x="350" y="590" width="160" height="60" as="geometry" />
        </mxCell>
        <mxCell id="systems-zone" value="" style="rounded=1;whiteSpace=wrap;html=1;fillColor=#d5e8d4;strokeColor=#82b366;opacity=20;" parent="1" vertex="1">
          <mxGeometry x="520" y="100" width="720" height="180" as="geometry" />
        </mxCell>
        <mxCell id="systems-title" value="IT-СИСТЕМЫ" style="text;html=1;strokeColor=none;fillColor=none;align=center;verticalAlign=middle;whiteSpace=wrap;rounded=0;fontStyle=1;fontSize=16;" parent="1" vertex="1">
          <mxGeometry x="820" y="110" width="120" height="25" as="geometry" />
        </mxCell>
        <mxCell id="abs" value="АБС&#xa;(Автоматизированная банковская система)&#xa;Delphi/Oracle" style="rounded=1;whiteSpace=wrap;html=1;fillColor=#d5e8d4;strokeColor=#82b366;fontStyle=1;fontSize=12;" parent="1" vertex="1">
          <mxGeometry x="540" y="150" width="180" height="90" as="geometry" />
        </mxCell>
        <mxCell id="callcenter-system" value="Система кол-центра&#xa;React.js/Java/PostgreSQL" style="rounded=1;whiteSpace=wrap;html=1;fillColor=#d5e8d4;strokeColor=#82b366;fontStyle=1;fontSize=12;" parent="1" vertex="1">
          <mxGeometry x="760" y="150" width="180" height="90" as="geometry" />
        </mxCell>
        <mxCell id="internetbank" value="Интернет-банк&#xa;ASP.NET/MS SQL" style="rounded=1;whiteSpace=wrap;html=1;fillColor=#d5e8d4;strokeColor=#82b366;fontStyle=1;fontSize=12;" parent="1" vertex="1">
          <mxGeometry x="1030" y="150" width="180" height="90" as="geometry" />
        </mxCell>
        <mxCell id="sms-system" value="СМС-шлюз" style="rounded=1;whiteSpace=wrap;html=1;fillColor=#e1d5e7;strokeColor=#9673a6;fontStyle=1;fontSize=12;" parent="1" vertex="1">
          <mxGeometry x="1280" y="150" width="120" height="60" as="geometry" />
        </mxCell>
        <mxCell id="website" value="Сайт&#xa;PHP/React.js" style="rounded=1;whiteSpace=wrap;html=1;fillColor=#d5e8d4;strokeColor=#82b366;fontStyle=1;fontSize=12;" parent="1" vertex="1">
          <mxGeometry x="1280" y="220" width="120" height="60" as="geometry" />
        </mxCell>
        <mxCell id="problem-zone" value="" style="rounded=1;whiteSpace=wrap;html=1;fillColor=#fff2cc;strokeColor=#d6b656;opacity=30;" parent="1" vertex="1">
          <mxGeometry x="520" y="320" width="720" height="140" as="geometry" />
        </mxCell>
        <mxCell id="problem-title" value="РУЧНЫЕ ПРОЦЕССЫ (ПРОБЛЕМЫ)" style="text;html=1;strokeColor=none;fillColor=none;align=center;verticalAlign=middle;whiteSpace=wrap;rounded=0;fontStyle=1;fontSize=16;fontColor=#d6b656;" parent="1" vertex="1">
          <mxGeometry x="760" y="330" width="320" height="25" as="geometry" />
        </mxCell>
        <mxCell id="email" value="Email переписка&#xa;(медленно, ошибки)" style="rounded=1;whiteSpace=wrap;html=1;fillColor=#fff2cc;strokeColor=#d6b656;fontStyle=1;fontSize=12;" parent="1" vertex="1">
          <mxGeometry x="540" y="370" width="160" height="70" as="geometry" />
        </mxCell>
        <mxCell id="excel" value="Excel расчеты&#xa;(ручная работа)" style="rounded=1;whiteSpace=wrap;html=1;fillColor=#fff2cc;strokeColor=#d6b656;fontStyle=1;fontSize=12;" parent="1" vertex="1">
          <mxGeometry x="730" y="370" width="160" height="70" as="geometry" />
        </mxCell>
        <mxCell id="waiting" value="Ожидание клиента&#xa;(20-60 минут)" style="rounded=1;whiteSpace=wrap;html=1;fillColor=#ffcccc;strokeColor=#d6b656;fontStyle=1;fontSize=12;" parent="1" vertex="1">
          <mxGeometry x="920" y="370" width="160" height="70" as="geometry" />
        </mxCell>
        <mxCell id="problem-flow" value="ПРОБЛЕМНЫЙ ПРОЦЕСС:" style="text;html=1;strokeColor=none;fillColor=none;align=left;verticalAlign=middle;whiteSpace=wrap;rounded=0;fontStyle=1;fontSize=14;fontColor=#d6b656;" parent="1" vertex="1">
          <mxGeometry x="280" y="480" width="220" height="25" as="geometry" />
        </mxCell>
        <mxCell id="arrow2" value="Обращение" style="endArrow=classic;html=1;rounded=0;strokeColor=#1f4e79;strokeWidth=2;fontColor=#1f4e79;fontSize=12;labelBackgroundColor=#ffffff;entryX=0;entryY=0.525;entryDx=0;entryDy=0;entryPerimeter=0;" parent="1" source="callcenter-employee" target="systems-zone" edge="1">
          <mxGeometry x="-0.6433" y="10" width="50" height="50" relative="1" as="geometry">
            <mxPoint x="300" y="300" as="sourcePoint" />
            <mxPoint x="530" y="195" as="targetPoint" />
            <Array as="points">
              <mxPoint x="480" y="440" />
              <mxPoint x="480" y="195" />
            </Array>
            <mxPoint as="offset" />
          </mxGeometry>
        </mxCell>
        <mxCell id="arrow4" value="" style="endArrow=classic;html=1;rounded=0;strokeColor=#0d7377;strokeWidth=3;fontColor=#0d7377;fontSize=12;labelBackgroundColor=#ffffff;" parent="1" edge="1">
          <mxGeometry x="0.3333" y="-50" width="50" height="50" relative="1" as="geometry">
            <mxPoint x="100" y="220" as="sourcePoint" />
            <mxPoint x="100" y="280" as="targetPoint" />
            <mxPoint as="offset" />
          </mxGeometry>
        </mxCell>
        <mxCell id="arrow5" value="Email запрос" style="endArrow=classic;html=1;rounded=0;strokeColor=#d6b656;strokeWidth=2;fontColor=#d6b656;fontSize=12;dashed=1;labelBackgroundColor=#ffffff;" parent="1" source="branch-employee" target="email" edge="1">
          <mxGeometry x="0.2329" y="15" width="50" height="50" relative="1" as="geometry">
            <mxPoint x="300" y="300" as="sourcePoint" />
            <mxPoint x="350" y="250" as="targetPoint" />
            <Array as="points">
              <mxPoint x="300" y="360" />
              <mxPoint x="300" y="405" />
            </Array>
            <mxPoint as="offset" />
          </mxGeometry>
        </mxCell>
        <mxCell id="arrow6" value="Согласование" style="endArrow=classic;html=1;rounded=0;strokeColor=#d6b656;strokeWidth=2;fontColor=#d6b656;fontSize=12;dashed=1;labelBackgroundColor=#ffffff;" parent="1" source="deposits-employee" target="credits-employee" edge="1">
          <mxGeometry width="50" height="50" relative="1" as="geometry">
            <mxPoint x="300" y="300" as="sourcePoint" />
            <mxPoint x="350" y="250" as="targetPoint" />
          </mxGeometry>
        </mxCell>
        <mxCell id="arrow7" value="Excel расчеты" style="endArrow=classic;html=1;rounded=0;strokeColor=#d6b656;strokeWidth=2;fontColor=#d6b656;fontSize=12;dashed=1;labelBackgroundColor=#ffffff;" parent="1" source="credits-employee" target="excel" edge="1">
          <mxGeometry x="0.0566" y="10" width="50" height="50" relative="1" as="geometry">
            <mxPoint x="300" y="300" as="sourcePoint" />
            <mxPoint x="350" y="250" as="targetPoint" />
            <Array as="points">
              <mxPoint x="430" y="520" />
              <mxPoint x="810" y="520" />
            </Array>
            <mxPoint as="offset" />
          </mxGeometry>
        </mxCell>
        <mxCell id="arrow8" value="Обработка" style="endArrow=classic;html=1;rounded=0;strokeColor=#82b366;strokeWidth=2;fontColor=#82b366;fontSize=12;labelBackgroundColor=#ffffff;" parent="1" source="deposits-employee" edge="1">
          <mxGeometry x="-0.2866" y="10" width="50" height="50" relative="1" as="geometry">
            <mxPoint x="300" y="300" as="sourcePoint" />
            <mxPoint x="520" y="195" as="targetPoint" />
            <Array as="points">
              <mxPoint x="150" y="520" />
              <mxPoint x="500" y="520" />
              <mxPoint x="500" y="195" />
            </Array>
            <mxPoint as="offset" />
          </mxGeometry>
        </mxCell>
        <mxCell id="arrow9" value="Создание депозита" style="endArrow=classic;html=1;rounded=0;strokeColor=#0d7377;strokeWidth=2;fontColor=#0d7377;fontSize=12;labelBackgroundColor=#ffffff;entryX=0;entryY=0.529;entryDx=0;entryDy=0;entryPerimeter=0;" parent="1" source="branch-employee" target="systems-zone" edge="1">
          <mxGeometry x="-0.4639" y="10" width="50" height="50" relative="1" as="geometry">
            <mxPoint x="300" y="300" as="sourcePoint" />
            <mxPoint x="350" y="250" as="targetPoint" />
            <Array as="points">
              <mxPoint x="460" y="360" />
              <mxPoint x="460" y="195" />
            </Array>
            <mxPoint as="offset" />
          </mxGeometry>
        </mxCell>
        <mxCell id="arrow11" value="СМС клиенту" style="endArrow=classic;html=1;rounded=0;strokeColor=#9673a6;strokeWidth=2;fontColor=#9673a6;fontSize=12;labelBackgroundColor=#ffffff;entryX=1;entryY=0;entryDx=0;entryDy=0;" parent="1" target="client" edge="1">
          <mxGeometry width="50" height="50" relative="1" as="geometry">
            <mxPoint x="1330" y="150" as="sourcePoint" />
            <mxPoint x="310" y="160" as="targetPoint" />
            <Array as="points">
              <mxPoint x="1330" y="90" />
              <mxPoint x="740" y="90" />
              <mxPoint x="230" y="110" />
            </Array>
          </mxGeometry>
        </mxCell>
        <mxCell id="arrow10" value="СМС уведомление" style="endArrow=classic;html=1;rounded=0;strokeColor=#9673a6;strokeWidth=2;fontColor=#9673a6;fontSize=12;labelBackgroundColor=#ffffff;" parent="1" source="abs" target="sms-system" edge="1">
          <mxGeometry width="50" height="50" relative="1" as="geometry">
            <mxPoint x="300" y="300" as="sourcePoint" />
            <mxPoint x="350" y="250" as="targetPoint" />
            <Array as="points">
              <mxPoint x="760" y="140" />
              <mxPoint x="1050" y="130" />
              <mxPoint x="1180" y="140" />
            </Array>
          </mxGeometry>
        </mxCell>
        <mxCell id="limitations" value="ТЕКУЩИЕ ОГРАНИЧЕНИЯ:" style="text;html=1;strokeColor=none;fillColor=none;align=left;verticalAlign=middle;whiteSpace=wrap;rounded=0;fontStyle=1;fontSize=14;fontColor=#cc0000;" parent="1" vertex="1">
          <mxGeometry x="910" y="720" width="200" height="25" as="geometry" />
        </mxCell>
        <mxCell id="limitation1" value="Сайт изолирован" style="text;html=1;strokeColor=none;fillColor=none;align=left;verticalAlign=middle;whiteSpace=wrap;rounded=0;fontSize=12;fontColor=#cc0000;" parent="1" vertex="1">
          <mxGeometry x="910" y="745" width="140" height="20" as="geometry" />
        </mxCell>
        <mxCell id="limitation2" value="Интернет-банк: только платежи" style="text;html=1;strokeColor=none;fillColor=none;align=left;verticalAlign=middle;whiteSpace=wrap;rounded=0;fontSize=12;fontColor=#cc0000;" parent="1" vertex="1">
          <mxGeometry x="910" y="765" width="200" height="20" as="geometry" />
        </mxCell>
        <mxCell id="daily-feed" value="Ежедневно: ставка ЦБ + риск → Excel → Email" style="text;html=1;strokeColor=none;fillColor=#ffffff;align=left;verticalAlign=middle;whiteSpace=wrap;rounded=1;fontSize=12;fontColor=#d6b656;" parent="1" vertex="1">
          <mxGeometry x="700" y="300" width="270" height="20" as="geometry" />
        </mxCell>
        <mxCell id="problems-box" value="" style="rounded=1;whiteSpace=wrap;html=1;fillColor=#ffebee;strokeColor=#f44336;opacity=50;" parent="1" vertex="1">
          <mxGeometry x="40" y="720" width="760" height="110" as="geometry" />
        </mxCell>
        <mxCell id="problems-header" value="⚠️ КЛЮЧЕВЫЕ ПРОБЛЕМЫ ДЛЯ ЦИФРОВОЙ ТРАНСФОРМАЦИИ:" style="text;html=1;strokeColor=none;fillColor=none;align=left;verticalAlign=middle;whiteSpace=wrap;rounded=0;fontStyle=1;fontSize=14;fontColor=#d32f2f;" parent="1" vertex="1">
          <mxGeometry x="50" y="730" width="500" height="25" as="geometry" />
        </mxCell>
        <mxCell id="problem-text" value="• Критическая зависимость от Email и Excel для бизнес-процессов&#xa;• Время обработки заявки: 20-60 минут ожидания клиента&#xa;• Отсутствие интеграции сайта с основными системами&#xa;• Невозможность автоматического расчета ставок" style="text;html=1;strokeColor=none;fillColor=none;align=left;verticalAlign=top;whiteSpace=wrap;rounded=0;fontSize=12;fontColor=#d32f2f;" parent="1" vertex="1">
          <mxGeometry x="50" y="760" width="720" height="50" as="geometry" />
        </mxCell>
      </root>
    </mxGraphModel>
  </diagram>
</mxfile>
